<?xml version="1.0" encoding="UTF-8"?>
<!DOCTYPE svg PUBLIC "-//W3C//DTD SVG 1.1//EN" "http://www.w3.org/Graphics/SVG/1.1/DTD/svg11.dtd">
<svg xmlns="http://www.w3.org/2000/svg" version="1.1" width="3019px" height="625px" style="shape-rendering:geometricPrecision; text-rendering:geometricPrecision; image-rendering:optimizeQuality; fill-rule:evenodd; clip-rule:evenodd" xmlns:xlink="http://www.w3.org/1999/xlink">
<g><path style="opacity:0.986" fill="#121212" d="M 2268.5,129.5 C 2296.72,140.271 2306.55,160.271 2298,189.5C 2292.1,202.364 2282.26,210.364 2268.5,213.5C 2237.84,216.312 2220.84,202.312 2217.5,171.5C 2221.42,141.698 2238.42,127.698 2268.5,129.5 Z"/></g>
<g><path style="opacity:0.378" fill="#727272" d="M 2268.5,129.5 C 2298.72,128.047 2315.38,142.381 2318.5,172.5C 2314.71,202.345 2298.04,216.011 2268.5,213.5C 2282.26,210.364 2292.1,202.364 2298,189.5C 2306.55,160.271 2296.72,140.271 2268.5,129.5 Z"/></g>
<g><path style="opacity:0.993" fill="#121212" d="M 748.5,134.5 C 766.993,135.497 785.659,135.83 804.5,135.5C 804.5,266.5 804.5,397.5 804.5,528.5C 780.167,528.5 755.833,528.5 731.5,528.5C 731.5,397.167 731.5,265.833 731.5,134.5C 737.167,134.5 742.833,134.5 748.5,134.5 Z"/></g>
<g><path style="opacity:0.397" fill="#727372" d="M 805.5,134.5 C 810.833,134.5 816.167,134.5 821.5,134.5C 821.5,265.833 821.5,397.167 821.5,528.5C 816.167,528.5 810.833,528.5 805.5,528.5C 805.5,397.167 805.5,265.833 805.5,134.5 Z"/></g>
<g><path style="opacity:0.996" fill="#121212" d="M 2787.5,134.5 C 2787.5,171.5 2787.5,208.5 2787.5,245.5C 2793.17,245.5 2798.83,245.5 2804.5,245.5C 2825.17,245.5 2845.83,245.5 2866.5,245.5C 2866.5,265.5 2866.5,285.5 2866.5,305.5C 2845.83,305.5 2825.17,305.5 2804.5,305.5C 2798.83,305.5 2793.17,305.5 2787.5,305.5C 2787.33,342.168 2787.5,378.835 2788,415.5C 2787.82,429.758 2790.49,443.424 2796,456.5C 2804.67,466.743 2815.84,471.41 2829.5,470.5C 2831.7,470.495 2833.7,470.162 2835.5,469.5C 2845.06,469.712 2854.56,469.045 2864,467.5C 2865.38,467.684 2866.21,468.351 2866.5,469.5C 2866.83,487.179 2866.5,504.846 2865.5,522.5C 2846.81,529.42 2827.48,532.754 2807.5,532.5C 2768.63,536.15 2740.13,520.817 2722,486.5C 2718.57,477.779 2716.24,468.779 2715,459.5C 2714.5,408.168 2714.33,356.834 2714.5,305.5C 2700.83,305.5 2687.17,305.5 2673.5,305.5C 2673.33,285.497 2673.5,265.497 2674,245.5C 2687.42,244.51 2700.92,244.177 2714.5,244.5C 2714.5,207.833 2714.5,171.167 2714.5,134.5C 2738.83,134.5 2763.17,134.5 2787.5,134.5 Z"/></g>
<g><path style="opacity:0.499" fill="#505050" d="M 2787.5,134.5 C 2787.83,134.5 2788.17,134.5 2788.5,134.5C 2788.5,171.167 2788.5,207.833 2788.5,244.5C 2793.83,244.5 2799.17,244.5 2804.5,244.5C 2804.5,244.833 2804.5,245.167 2804.5,245.5C 2798.83,245.5 2793.17,245.5 2787.5,245.5C 2787.5,208.5 2787.5,171.5 2787.5,134.5 Z"/></g>
<g><path style="opacity:0.384" fill="#727372" d="M 2788.5,134.5 C 2793.83,134.5 2799.17,134.5 2804.5,134.5C 2804.5,171.167 2804.5,207.833 2804.5,244.5C 2799.17,244.5 2793.83,244.5 2788.5,244.5C 2788.5,207.833 2788.5,171.167 2788.5,134.5 Z"/></g>
<g><path style="opacity:0.769" fill="#262626" d="M 748.5,134.5 C 767.5,134.5 786.5,134.5 805.5,134.5C 805.5,265.833 805.5,397.167 805.5,528.5C 805.167,528.5 804.833,528.5 804.5,528.5C 804.5,397.5 804.5,266.5 804.5,135.5C 785.659,135.83 766.993,135.497 748.5,134.5 Z"/></g>
<g><path style="opacity:0.992" fill="#121212" d="M 91.5,160.5 C 126.703,240.268 162.203,319.934 198,399.5C 201.513,393.457 204.346,387.124 206.5,380.5C 239.284,307.59 272.117,234.59 305,161.5C 332.426,160.505 359.926,160.172 387.5,160.5C 329.95,282.933 272.95,405.599 216.5,528.5C 204.253,528.822 192.086,528.488 180,527.5C 123.44,405.38 66.6067,283.38 9.5,161.5C 36.8252,160.5 64.1585,160.167 91.5,160.5 Z"/></g>
<g><path style="opacity:0.385" fill="#727272" d="M 91.5,160.5 C 97.0934,160.193 102.593,160.527 108,161.5C 140.848,234.526 173.681,307.526 206.5,380.5C 204.346,387.124 201.513,393.457 198,399.5C 162.203,319.934 126.703,240.268 91.5,160.5 Z"/></g>
<g><path style="opacity:0.385" fill="#727272" d="M 387.5,160.5 C 392.833,160.5 398.167,160.5 403.5,160.5C 347.231,283.041 290.398,405.374 233,527.5C 227.593,528.473 222.093,528.807 216.5,528.5C 272.95,405.599 329.95,282.933 387.5,160.5 Z"/></g>
<g><path style="opacity:0.995" fill="#121212" d="M 1697.5,160.5 C 1787.49,167.999 1830.65,216.999 1827,307.5C 1821.98,373.185 1787.48,413.685 1723.5,429C 1711.36,430.88 1699.36,432.713 1687.5,434.5C 1666.17,434.5 1644.83,434.5 1623.5,434.5C 1617.83,434.5 1612.17,434.5 1606.5,434.5C 1606.5,465.833 1606.5,497.167 1606.5,528.5C 1581.5,528.5 1556.5,528.5 1531.5,528.5C 1531.5,405.833 1531.5,283.167 1531.5,160.5C 1586.83,160.5 1642.17,160.5 1697.5,160.5 Z M 1623.5,225.5 C 1645.53,225.12 1667.53,225.62 1689.5,227C 1728.69,235.044 1748.36,259.211 1748.5,299.5C 1746.21,340.632 1724.54,364.132 1683.5,370C 1663.53,371.397 1643.53,371.897 1623.5,371.5C 1623.5,322.833 1623.5,274.167 1623.5,225.5 Z"/></g>
<g><path style="opacity:0.377" fill="#727272" d="M 1697.5,160.5 C 1728.93,159.152 1758.6,165.652 1786.5,180C 1818.25,200.131 1836.75,228.965 1842,266.5C 1847.72,302.443 1842.72,336.776 1827,369.5C 1810.28,396.969 1786.44,415.469 1755.5,425C 1733.31,431.558 1710.65,434.725 1687.5,434.5C 1699.36,432.713 1711.36,430.88 1723.5,429C 1787.48,413.685 1821.98,373.185 1827,307.5C 1830.65,216.999 1787.49,167.999 1697.5,160.5 Z"/></g>
<g><path style="opacity:0.388" fill="#707070" d="M 1623.5,225.5 C 1623.5,274.167 1623.5,322.833 1623.5,371.5C 1617.83,371.5 1612.17,371.5 1606.5,371.5C 1606.5,322.833 1606.5,274.167 1606.5,225.5C 1612.17,225.5 1617.83,225.5 1623.5,225.5 Z"/></g>
<g><path style="opacity:0.992" fill="#121212" d="M 524.5,239.5 C 548.064,242.799 570.397,250.132 591.5,261.5C 591.56,262.043 591.893,262.376 592.5,262.5C 593.8,259.691 593.8,257.024 592.5,254.5C 592.5,254.167 592.5,253.833 592.5,253.5C 592.5,250.5 592.5,247.5 592.5,244.5C 616.833,244.5 641.167,244.5 665.5,244.5C 665.5,339.167 665.5,433.833 665.5,528.5C 641.167,528.5 616.833,528.5 592.5,528.5C 592.5,525.167 592.5,521.833 592.5,518.5C 593.751,515.207 593.751,511.874 592.5,508.5C 569.173,523.276 543.839,531.61 516.5,533.5C 438.936,532.103 390.77,493.77 372,418.5C 361.526,362.605 376.026,314.438 415.5,274C 446.805,247.402 483.138,235.902 524.5,239.5 Z M 531.5,306.5 C 554.223,307.618 574.389,315.285 592,329.5C 592.667,367.5 592.667,405.5 592,443.5C 573.885,458.297 553.051,465.964 529.5,466.5C 493.838,462.009 470.338,442.675 459,408.5C 450.71,373.704 460.21,344.871 487.5,322C 500.651,312.561 515.318,307.394 531.5,306.5 Z"/></g>
<g><path style="opacity:0.358" fill="#717171" d="M 524.5,239.5 C 548.231,239.179 570.897,243.846 592.5,253.5C 592.5,253.833 592.5,254.167 592.5,254.5C 592.802,257.059 592.468,259.393 591.5,261.5C 570.397,250.132 548.064,242.799 524.5,239.5 Z"/></g>
<g><path style="opacity:0.993" fill="#121212" d="M 1346.5,239.5 C 1408.43,244.927 1448.93,277.26 1468,336.5C 1474.46,359.781 1476.63,383.447 1474.5,407.5C 1410.17,407.5 1345.83,407.5 1281.5,407.5C 1276.17,407.5 1270.83,407.5 1265.5,407.5C 1272.29,439.128 1291.29,459.295 1322.5,468C 1332.23,470.43 1341.89,470.93 1351.5,469.5C 1378.91,467.964 1401.24,456.63 1418.5,435.5C 1421.85,437.859 1425.18,440.192 1428.5,442.5C 1439.91,453.152 1451.74,463.485 1464,473.5C 1464.67,474.5 1464.67,475.5 1464,476.5C 1442.97,501.777 1416.47,518.61 1384.5,527C 1370.48,530.014 1356.48,532.181 1342.5,533.5C 1279.3,534.006 1233.46,506.339 1205,450.5C 1183.28,396.46 1188.28,345.127 1220,296.5C 1244.53,264.976 1276.7,246.476 1316.5,241C 1326.46,239.787 1336.46,239.287 1346.5,239.5 Z M 1344.5,298.5 C 1381.36,302.525 1401.69,323.025 1405.5,360C 1364.5,360.5 1323.5,360.667 1282.5,360.5C 1290.27,326.73 1310.94,306.064 1344.5,298.5 Z"/></g>
<g><path style="opacity:0.381" fill="#727272" d="M 1346.5,239.5 C 1423.21,239.056 1470.37,276.056 1488,350.5C 1491.08,369.372 1492.24,388.372 1491.5,407.5C 1485.83,407.5 1480.17,407.5 1474.5,407.5C 1476.63,383.447 1474.46,359.781 1468,336.5C 1448.93,277.26 1408.43,244.927 1346.5,239.5 Z"/></g>
<g><path style="opacity:0.992" fill="#121212" d="M 2026.5,239.5 C 2079.54,244.595 2120.71,269.262 2150,313.5C 2179.06,366.447 2177.06,418.114 2144,468.5C 2114.28,506.947 2075.12,528.614 2026.5,533.5C 1969.15,535.897 1922.65,514.897 1887,470.5C 1857.32,426.686 1851.99,380.019 1871,330.5C 1889.34,291.161 1918.84,263.995 1959.5,249C 1981.24,241.711 2003.57,238.544 2026.5,239.5 Z M 2022.5,306.5 C 2062.94,311.472 2087.77,333.805 2097,373.5C 2100.84,414.295 2084.34,443.462 2047.5,461C 2038.84,464.565 2029.84,466.399 2020.5,466.5C 1976.24,457.742 1952.24,430.909 1948.5,386C 1951.69,345.612 1972.69,319.612 2011.5,308C 2015.15,307.281 2018.81,306.781 2022.5,306.5 Z"/></g>
<g><path style="opacity:0.378" fill="#727272" d="M 2026.5,239.5 C 2087.88,239.095 2135.04,264.429 2168,315.5C 2189.97,357.108 2192.3,399.774 2175,443.5C 2151.21,491.838 2112.71,521.005 2059.5,531C 2048.57,532.76 2037.57,533.593 2026.5,533.5C 2075.12,528.614 2114.28,506.947 2144,468.5C 2177.06,418.114 2179.06,366.447 2150,313.5C 2120.71,269.262 2079.54,244.595 2026.5,239.5 Z"/></g>
<g><path style="opacity:0.991" fill="#121212" d="M 2524.5,239.5 C 2592.14,242.974 2628.31,278.641 2633,346.5C 2633.5,407.166 2633.67,467.832 2633.5,528.5C 2609.17,528.5 2584.83,528.5 2560.5,528.5C 2560.67,472.499 2560.5,416.499 2560,360.5C 2559.01,335.207 2546.84,318.04 2523.5,309C 2518.31,307.202 2512.98,306.369 2507.5,306.5C 2481.35,303.27 2458.18,310.27 2438,327.5C 2437.5,394.499 2437.33,461.499 2437.5,528.5C 2412.83,528.5 2388.17,528.5 2363.5,528.5C 2363.33,434.166 2363.5,339.833 2364,245.5C 2369.41,244.527 2374.91,244.193 2380.5,244.5C 2398.99,245.497 2417.66,245.83 2436.5,245.5C 2436.17,251.206 2436.5,256.872 2437.5,262.5C 2438.11,262.376 2438.44,262.043 2438.5,261.5C 2443.37,258.234 2448.37,255.234 2453.5,252.5C 2476.06,242.389 2499.73,238.056 2524.5,239.5 Z"/></g>
<g><path style="opacity:0.385" fill="#717171" d="M 2524.5,239.5 C 2606.26,236.433 2648.1,275.766 2650,357.5C 2650.5,414.499 2650.67,471.499 2650.5,528.5C 2644.83,528.5 2639.17,528.5 2633.5,528.5C 2633.67,467.832 2633.5,407.166 2633,346.5C 2628.31,278.641 2592.14,242.974 2524.5,239.5 Z"/></g>
<g><path style="opacity:0.386" fill="#707070" d="M 665.5,244.5 C 671.167,244.5 676.833,244.5 682.5,244.5C 682.5,339.167 682.5,433.833 682.5,528.5C 676.833,528.5 671.167,528.5 665.5,528.5C 665.5,433.833 665.5,339.167 665.5,244.5 Z"/></g>
<g><path style="opacity:0.994" fill="#121212" d="M 885.5,244.5 C 903.993,245.497 922.659,245.83 941.5,245.5C 941.168,301.003 941.501,356.336 942.5,411.5C 946.594,451.525 968.594,469.858 1008.5,466.5C 1030.68,465.943 1050.18,458.61 1067,444.5C 1067.5,377.834 1067.67,311.167 1067.5,244.5C 1072.83,244.5 1078.17,244.5 1083.5,244.5C 1101.99,245.497 1120.66,245.83 1139.5,245.5C 1139.5,339.833 1139.5,434.167 1139.5,528.5C 1115.5,528.5 1091.5,528.5 1067.5,528.5C 1067.5,525.833 1067.5,523.167 1067.5,520.5C 1067.82,517.102 1067.49,513.768 1066.5,510.5C 1046.17,523.831 1023.84,531.164 999.5,532.5C 915.51,538.449 872.01,499.449 869,415.5C 868.5,358.501 868.333,301.501 868.5,244.5C 874.167,244.5 879.833,244.5 885.5,244.5 Z"/></g>
<g><path style="opacity:0.387" fill="#727272" d="M 942.5,244.5 C 947.833,244.5 953.167,244.5 958.5,244.5C 958.333,300.168 958.5,355.834 959,411.5C 960.664,443.325 977.164,461.658 1008.5,466.5C 968.594,469.858 946.594,451.525 942.5,411.5C 942.5,355.833 942.5,300.167 942.5,244.5 Z"/></g>
<g><path style="opacity:0.396" fill="#727372" d="M 1140.5,244.5 C 1145.83,244.5 1151.17,244.5 1156.5,244.5C 1156.5,339.167 1156.5,433.833 1156.5,528.5C 1151.17,528.5 1145.83,528.5 1140.5,528.5C 1140.5,433.833 1140.5,339.167 1140.5,244.5 Z"/></g>
<g><path style="opacity:0.993" fill="#121212" d="M 2296.5,244.5 C 2296.5,339.167 2296.5,433.833 2296.5,528.5C 2272.17,528.5 2247.83,528.5 2223.5,528.5C 2223.5,433.833 2223.5,339.167 2223.5,244.5C 2247.83,244.5 2272.17,244.5 2296.5,244.5 Z"/></g>
<g><path style="opacity:0.384" fill="#717171" d="M 2296.5,244.5 C 2302.17,244.5 2307.83,244.5 2313.5,244.5C 2313.5,339.167 2313.5,433.833 2313.5,528.5C 2307.83,528.5 2302.17,528.5 2296.5,528.5C 2296.5,433.833 2296.5,339.167 2296.5,244.5 Z"/></g>
<g><path style="opacity:0.325" fill="#2b2b2b" d="M 2380.5,244.5 C 2399.5,244.5 2418.5,244.5 2437.5,244.5C 2437.18,250.358 2437.51,256.025 2438.5,261.5C 2438.44,262.043 2438.11,262.376 2437.5,262.5C 2436.5,256.872 2436.17,251.206 2436.5,245.5C 2417.66,245.83 2398.99,245.497 2380.5,244.5 Z"/></g>
<g><path style="opacity:0.372" fill="#727272" d="M 2437.5,244.5 C 2442.83,244.5 2448.17,244.5 2453.5,244.5C 2453.5,247.167 2453.5,249.833 2453.5,252.5C 2448.37,255.234 2443.37,258.234 2438.5,261.5C 2437.51,256.025 2437.18,250.358 2437.5,244.5 Z"/></g>
<g><path style="opacity:0.387" fill="#727372" d="M 2867.5,244.5 C 2872.83,244.5 2878.17,244.5 2883.5,244.5C 2883.5,264.833 2883.5,285.167 2883.5,305.5C 2878.17,305.5 2872.83,305.5 2867.5,305.5C 2867.5,285.167 2867.5,264.833 2867.5,244.5 Z"/></g>
<g><path style="opacity:0.596" fill="#393939" d="M 885.5,244.5 C 904.5,244.5 923.5,244.5 942.5,244.5C 942.5,300.167 942.5,355.833 942.5,411.5C 941.501,356.336 941.168,301.003 941.5,245.5C 922.659,245.83 903.993,245.497 885.5,244.5 Z"/></g>
<g><path style="opacity:0.749" fill="#282828" d="M 1083.5,244.5 C 1102.5,244.5 1121.5,244.5 1140.5,244.5C 1140.5,339.167 1140.5,433.833 1140.5,528.5C 1140.17,528.5 1139.83,528.5 1139.5,528.5C 1139.5,434.167 1139.5,339.833 1139.5,245.5C 1120.66,245.83 1101.99,245.497 1083.5,244.5 Z"/></g>
<g><path style="opacity:0.653" fill="#303030" d="M 2804.5,245.5 C 2804.5,245.167 2804.5,244.833 2804.5,244.5C 2825.5,244.5 2846.5,244.5 2867.5,244.5C 2867.5,264.833 2867.5,285.167 2867.5,305.5C 2867.17,305.5 2866.83,305.5 2866.5,305.5C 2866.5,285.5 2866.5,265.5 2866.5,245.5C 2845.83,245.5 2825.17,245.5 2804.5,245.5 Z"/></g>
<g><path style="opacity:0.583" fill="#424242" d="M 592.5,254.5 C 593.8,257.024 593.8,259.691 592.5,262.5C 591.893,262.376 591.56,262.043 591.5,261.5C 592.468,259.393 592.802,257.059 592.5,254.5 Z"/></g>
<g><path style="opacity:0.378" fill="#727272" d="M 1344.5,298.5 C 1310.94,306.064 1290.27,326.73 1282.5,360.5C 1276.82,360.666 1271.16,360.499 1265.5,360C 1275.68,318.644 1302.01,298.144 1344.5,298.5 Z"/></g>
<g><path style="opacity:0.381" fill="#727272" d="M 531.5,306.5 C 515.318,307.394 500.651,312.561 487.5,322C 460.21,344.871 450.71,373.704 459,408.5C 470.338,442.675 493.838,462.009 529.5,466.5C 490.93,469.295 463.097,453.295 446,418.5C 432.946,383.433 439.446,352.6 465.5,326C 484.781,309.854 506.781,303.354 531.5,306.5 Z"/></g>
<g><path style="opacity:0.382" fill="#727272" d="M 2022.5,306.5 C 2018.81,306.781 2015.15,307.281 2011.5,308C 1972.69,319.612 1951.69,345.612 1948.5,386C 1952.24,430.909 1976.24,457.742 2020.5,466.5C 1984.49,468.073 1957.65,453.073 1940,421.5C 1923.09,376.223 1934.93,340.723 1975.5,315C 1990.5,307.554 2006.16,304.72 2022.5,306.5 Z"/></g>
<g><path style="opacity:0.39" fill="#727272" d="M 2507.5,306.5 C 2487.47,307.689 2469.8,314.689 2454.5,327.5C 2453.5,394.497 2453.17,461.497 2453.5,528.5C 2448.17,528.5 2442.83,528.5 2437.5,528.5C 2437.33,461.499 2437.5,394.499 2438,327.5C 2458.18,310.27 2481.35,303.27 2507.5,306.5 Z"/></g>
<g><path style="opacity:0.386" fill="#717171" d="M 2804.5,305.5 C 2804.33,344.835 2804.5,384.168 2805,423.5C 2804.81,437.071 2808.47,449.404 2816,460.5C 2821.69,465.263 2828.19,468.263 2835.5,469.5C 2833.7,470.162 2831.7,470.495 2829.5,470.5C 2815.84,471.41 2804.67,466.743 2796,456.5C 2790.49,443.424 2787.82,429.758 2788,415.5C 2787.5,378.835 2787.33,342.168 2787.5,305.5C 2793.17,305.5 2798.83,305.5 2804.5,305.5 Z"/></g>
<g><path style="opacity:0.38" fill="#717171" d="M 1281.5,407.5 C 1290.73,444.06 1314.06,464.727 1351.5,469.5C 1341.89,470.93 1332.23,470.43 1322.5,468C 1291.29,459.295 1272.29,439.128 1265.5,407.5C 1270.83,407.5 1276.17,407.5 1281.5,407.5 Z"/></g>
<g><path style="opacity:0.388" fill="#707070" d="M 1623.5,434.5 C 1623.5,465.833 1623.5,497.167 1623.5,528.5C 1617.83,528.5 1612.17,528.5 1606.5,528.5C 1606.5,497.167 1606.5,465.833 1606.5,434.5C 1612.17,434.5 1617.83,434.5 1623.5,434.5 Z"/></g>
<g><path style="opacity:0.367" fill="#717171" d="M 1342.5,533.5 C 1356.48,532.181 1370.48,530.014 1384.5,527C 1416.47,518.61 1442.97,501.777 1464,476.5C 1464.67,475.5 1464.67,474.5 1464,473.5C 1451.74,463.485 1439.91,453.152 1428.5,442.5C 1430.6,440.502 1432.6,438.335 1434.5,436C 1435.17,435.333 1435.83,435.333 1436.5,436C 1451.81,448.315 1466.81,460.981 1481.5,474C 1470.1,490.697 1455.44,503.697 1437.5,513C 1407.65,528.071 1375.98,534.905 1342.5,533.5 Z"/></g>
<g><path style="opacity:0.985" fill="#91eff2" d="M 2951.5,448.5 C 2978.69,458.231 2988.86,477.231 2982,505.5C 2976.31,520.358 2965.81,529.691 2950.5,533.5C 2920.27,534.942 2903.61,520.608 2900.5,490.5C 2903.03,464.975 2917.03,450.641 2942.5,447.5C 2945.49,447.966 2948.49,448.299 2951.5,448.5 Z"/></g>
<g><path style="opacity:0.375" fill="#737373" d="M 2950.5,533.5 C 2965.81,529.691 2976.31,520.358 2982,505.5C 2988.86,477.231 2978.69,458.231 2951.5,448.5C 2972.89,445.944 2988.39,454.277 2998,473.5C 3004.48,492.726 3000.65,509.559 2986.5,524C 2975.86,532.033 2963.86,535.199 2950.5,533.5 Z"/></g>
<g><path style="opacity:0.381" fill="#727272" d="M 2807.5,532.5 C 2827.48,532.754 2846.81,529.42 2865.5,522.5C 2866.5,504.846 2866.83,487.179 2866.5,469.5C 2871.79,468.616 2877.12,467.949 2882.5,467.5C 2882.83,486.076 2882.49,504.576 2881.5,523C 2857.3,531.038 2832.63,534.205 2807.5,532.5 Z"/></g>
<g><path style="opacity:0.349" fill="#6f6f6f" d="M 592.5,518.5 C 568.381,529.39 543.048,534.39 516.5,533.5C 543.839,531.61 569.173,523.276 592.5,508.5C 593.751,511.874 593.751,515.207 592.5,518.5 Z"/></g>
<g><path style="opacity:0.349" fill="#707070" d="M 1067.5,520.5 C 1045.62,529.813 1022.95,533.813 999.5,532.5C 1023.84,531.164 1046.17,523.831 1066.5,510.5C 1067.49,513.768 1067.82,517.102 1067.5,520.5 Z"/></g>
</svg>
