<?xml version="1.0" encoding="UTF-8" standalone="no"?>
<svg
   xmlns:dc="http://purl.org/dc/elements/1.1/"
   xmlns:cc="http://creativecommons.org/ns#"
   xmlns:rdf="http://www.w3.org/1999/02/22-rdf-syntax-ns#"
   xmlns:svg="http://www.w3.org/2000/svg"
   xmlns="http://www.w3.org/2000/svg"
   viewBox="0 0 2560 1440"
   height="1440"
   width="2560"
   xml:space="preserve"
   id="svg2"
   version="1.1"><metadata
     id="metadata8"><rdf:RDF><cc:Work
         rdf:about=""><dc:format>image/svg+xml</dc:format><dc:type
           rdf:resource="http://purl.org/dc/dcmitype/StillImage" /></cc:Work></rdf:RDF></metadata><defs
     id="defs6"><clipPath
       id="clipPath38"
       clipPathUnits="userSpaceOnUse"><path
         id="path36"
         d="M 0,1080 H 1920 V 0 H 0 Z" /></clipPath></defs><g
     transform="matrix(1.3333333,0,0,-1.3333333,0,1440)"
     id="g10"><g
       transform="translate(461.7656,615.9175)"
       id="g12"><path
         id="path14"
         style="fill:#393536;fill-opacity:1;fill-rule:nonzero;stroke:none"
         d="M 0,0 -50.908,-98.658 -102.169,0 h -67.873 L -221.304,-98.658 -272.211,0 h -54.991 l 78.348,-151.835 h 54.99 l 57.759,111.16 57.757,-111.16 h 54.991 L 54.99,0 Z" /></g><g
       transform="translate(604.5947,520.0088)"
       id="g16"><path
         id="path18"
         style="fill:#393536;fill-opacity:1;fill-rule:nonzero;stroke:none"
         d="M 0,0 H -39.682 L 0,58.831 39.682,0 Z M -33.936,95.909 -136.351,-55.927 h 58.946 l 20.143,29.865 H 57.261 L 77.405,-55.927 H 136.35 L 33.936,95.909 Z" /></g><g
       transform="translate(1269.123,615.9722)"
       id="g20"><path
         id="path22"
         style="fill:#393536;fill-opacity:1;fill-rule:nonzero;stroke:none"
         d="M 0,0 -50.907,-98.658 -102.17,0 h -67.872 L -221.304,-98.658 -272.211,0 h -54.991 l 78.348,-151.835 h 54.99 l 57.759,111.16 57.757,-111.16 h 54.991 L 54.99,0 Z" /></g><g
       transform="translate(1370.2539,520.0635)"
       id="g24"><path
         id="path26"
         style="fill:#393536;fill-opacity:1;fill-rule:nonzero;stroke:none"
         d="M 0,0 39.682,58.831 79.363,0 Z M 5.745,95.909 -96.669,-55.927 h 58.945 l 20.144,29.865 H 96.943 l 20.144,-29.865 h 58.945 L 73.618,95.909 Z" /></g><g
       transform="translate(1720.335,615.9722)"
       id="g28"><path
         id="path30"
         style="fill:#393536;fill-opacity:1;fill-rule:nonzero;stroke:none"
         d="M 0,0 V -98.269 L -111.462,0 h -62.587 v -106.801 l 30.375,-45.034 h 23.923 V -46.258 L 0,-151.835 H 54.298 V 0 Z" /></g><g
       id="g32"><g
         clip-path="url(#clipPath38)"
         id="g34"><g
           transform="translate(846.2207,590.6235)"
           id="g40"><path
             id="path42"
             style="fill:#393536;fill-opacity:1;fill-rule:nonzero;stroke:none"
             d="m 0,0 c 42.902,0 64.916,-15.367 71.63,-28.628 l 49.244,9.892 C 107.818,4.21 69.395,27.153 0,27.153 c -71.63,0 -135.425,-29.679 -135.425,-77.883 0,-48.201 60.814,-77.67 132.072,-77.67 39.913,0 66.034,10.102 77.972,20.207 l 3.353,-17.051 h 41.785 v 77.673 H 16.784 v -25.262 h 51.473 c 1.984,-12.656 -19.013,-29.047 -67.884,-29.047 -44.393,0 -83.569,17.471 -83.569,51.15 C -83.196,-15.367 -39.922,0 0,0" /></g></g></g></g></svg>